<svg aria-hidden="true" style="position: absolute; width: 0; height: 0; overflow: hidden;" version="1.1" xmlns="http://www.w3.org/2000/svg" xmlns:xlink="http://www.w3.org/1999/xlink">
<defs>
<symbol id="icon-wechat" viewBox="0 0 32 28">
<path d="M9.063 7.203c0-0.859-0.562-1.422-1.422-1.422-0.844 0-1.703 0.562-1.703 1.422 0 0.844 0.859 1.406 1.703 1.406 0.859 0 1.422-0.562 1.422-1.406zM20.672 15.125c0-0.562-0.562-1.125-1.422-1.125-0.562 0-1.125 0.562-1.125 1.125 0 0.578 0.562 1.141 1.125 1.141 0.859 0 1.422-0.562 1.422-1.141zM16.984 7.203c0-0.859-0.562-1.422-1.406-1.422-0.859 0-1.703 0.562-1.703 1.422 0 0.844 0.844 1.406 1.703 1.406 0.844 0 1.406-0.562 1.406-1.406zM26.906 15.125c0-0.562-0.578-1.125-1.422-1.125-0.562 0-1.125 0.562-1.125 1.125 0 0.578 0.562 1.141 1.125 1.141 0.844 0 1.422-0.562 1.422-1.141zM22.75 8.922c-0.359-0.047-0.719-0.063-1.094-0.063-5.375 0-9.625 4.016-9.625 8.953 0 0.828 0.125 1.625 0.359 2.375-0.359 0.031-0.703 0.047-1.062 0.047-1.422 0-2.547-0.281-3.969-0.562l-3.953 1.984 1.125-3.406c-2.828-1.984-4.531-4.547-4.531-7.656 0-5.391 5.094-9.625 11.328-9.625 5.563 0 10.453 3.391 11.422 7.953zM32 17.687c0 2.547-1.687 4.813-3.969 6.516l0.859 2.828-3.109-1.703c-1.141 0.281-2.281 0.578-3.406 0.578-5.391 0-9.625-3.687-9.625-8.219s4.234-8.219 9.625-8.219c5.094 0 9.625 3.687 9.625 8.219z"></path>
</symbol>
<symbol id="icon-pencil" viewBox="0 0 32 32">
<path d="M27 0c2.761 0 5 2.239 5 5 0 1.126-0.372 2.164-1 3l-2 2-7-7 2-2c0.836-0.628 1.874-1 3-1zM2 23l-2 9 9-2 18.5-18.5-7-7-18.5 18.5zM22.362 11.362l-14 14-1.724-1.724 14-14 1.724 1.724z"></path>
</symbol>
<symbol id="icon-download" viewBox="0 0 32 32">
<path d="M16 18l8-8h-6v-8h-4v8h-6zM23.273 14.727l-2.242 2.242 8.128 3.031-13.158 4.907-13.158-4.907 8.127-3.031-2.242-2.242-8.727 3.273v8l16 6 16-6v-8z"></path>
</symbol>
<symbol id="icon-bubbles3" viewBox="0 0 36 32">
<path d="M34 28.161c0 1.422 0.813 2.653 2 3.256v0.498c-0.332 0.045-0.671 0.070-1.016 0.070-2.125 0-4.042-0.892-5.398-2.321-0.819 0.218-1.688 0.336-2.587 0.336-4.971 0-9-3.582-9-8s4.029-8 9-8c4.971 0 9 3.582 9 8 0 1.73-0.618 3.331-1.667 4.64-0.213 0.463-0.333 0.979-0.333 1.522zM7.209 6.912c-2.069 1.681-3.209 3.843-3.209 6.088 0 1.259 0.35 2.481 1.039 3.63 0.711 1.185 1.781 2.268 3.093 3.133 0.949 0.625 1.587 1.623 1.755 2.747 0.056 0.375 0.091 0.753 0.105 1.129 0.233-0.194 0.461-0.401 0.684-0.624 0.755-0.755 1.774-1.172 2.828-1.172 0.168 0 0.336 0.011 0.505 0.032 0.655 0.083 1.323 0.125 1.987 0.126v4c-0.848-0-1.68-0.054-2.492-0.158-3.437 3.437-7.539 4.053-11.505 4.144v-0.841c2.142-1.049 4-2.961 4-5.145 0-0.305-0.024-0.604-0.068-0.897-3.619-2.383-5.932-6.024-5.932-10.103 0-7.18 7.163-13 16-13 8.702 0 15.781 5.644 15.995 12.672-1.284-0.572-2.683-0.919-4.133-1.018-0.36-1.752-1.419-3.401-3.070-4.742-1.104-0.897-2.404-1.606-3.863-2.108-1.553-0.534-3.211-0.804-4.928-0.804s-3.375 0.271-4.928 0.804c-1.46 0.502-2.76 1.211-3.863 2.108z"></path>
</symbol>
<symbol id="icon-mail4" viewBox="0 0 32 32">
<path d="M16 0c-8.837 0-16 7.163-16 16s7.163 16 16 16 16-7.163 16-16-7.163-16-16-16zM8 8h16c0.286 0 0.563 0.061 0.817 0.177l-8.817 10.286-8.817-10.287c0.254-0.116 0.531-0.177 0.817-0.177zM6 22v-12c0-0.042 0.002-0.084 0.004-0.125l5.864 6.842-5.8 5.8c-0.045-0.167-0.069-0.34-0.069-0.517zM24 24h-16c-0.177 0-0.35-0.024-0.517-0.069l5.691-5.691 2.826 3.297 2.826-3.297 5.691 5.691c-0.167 0.045-0.34 0.069-0.517 0.069zM26 22c0 0.177-0.024 0.35-0.069 0.517l-5.8-5.8 5.865-6.842c0.003 0.041 0.004 0.083 0.004 0.125v12z"></path>
</symbol>
<symbol id="icon-sina-weibo" viewBox="0 0 32 32">
<path d="M13.444 28.063c-5.3 0.525-9.875-1.875-10.219-5.35-0.344-3.481 3.675-6.719 8.969-7.244 5.3-0.525 9.875 1.875 10.213 5.35 0.35 3.481-3.669 6.725-8.963 7.244zM24.038 16.519c-0.45-0.137-0.762-0.225-0.525-0.819 0.512-1.287 0.563-2.394 0.006-3.188-1.038-1.481-3.881-1.406-7.137-0.037 0 0-1.025 0.444-0.762-0.363 0.5-1.613 0.425-2.956-0.356-3.738-1.769-1.769-6.469 0.069-10.5 4.1-3.013 3.006-4.763 6.213-4.763 8.981 0 5.288 6.787 8.506 13.425 8.506 8.7 0 14.494-5.056 14.494-9.069 0-2.431-2.044-3.806-3.881-4.375z"></path>
<path d="M29.819 6.831c-2.1-2.331-5.2-3.219-8.063-2.612v0c-0.663 0.144-1.081 0.794-0.938 1.45 0.144 0.662 0.788 1.081 1.45 0.938 2.038-0.431 4.238 0.2 5.731 1.856s1.9 3.912 1.256 5.888v0c-0.206 0.644 0.144 1.331 0.788 1.544 0.644 0.206 1.331-0.144 1.544-0.787v-0.006c0.9-2.762 0.331-5.938-1.769-8.269z"></path>
<path d="M26.587 9.75c-1.025-1.137-2.538-1.569-3.925-1.269-0.569 0.119-0.931 0.688-0.813 1.256 0.125 0.569 0.688 0.931 1.25 0.806v0c0.681-0.144 1.419 0.069 1.919 0.619 0.5 0.556 0.637 1.313 0.419 1.975v0c-0.175 0.55 0.125 1.15 0.681 1.331 0.556 0.175 1.15-0.125 1.331-0.681 0.438-1.356 0.163-2.906-0.863-4.037z"></path>
<path d="M13.738 21.769c-0.188 0.319-0.594 0.469-0.912 0.337-0.319-0.125-0.412-0.488-0.231-0.794 0.188-0.306 0.581-0.456 0.894-0.337 0.313 0.113 0.425 0.469 0.25 0.794zM12.044 23.931c-0.512 0.819-1.613 1.175-2.438 0.8-0.813-0.369-1.056-1.319-0.544-2.119 0.506-0.794 1.569-1.15 2.387-0.806 0.831 0.356 1.1 1.3 0.594 2.125zM13.969 18.144c-2.519-0.656-5.369 0.6-6.463 2.819-1.119 2.262-0.037 4.781 2.506 5.606 2.637 0.85 5.75-0.456 6.831-2.894 1.069-2.394-0.262-4.85-2.875-5.531z"></path>
</symbol>
</defs>
</svg>
